# xmcd
#
# Track frame offsets: 
#        150
#        14987
#        38816
#        53236
#        69896
#        85015
#        98079
#        105478
#        122459
#        130815
#        149314
#
# Disc length: 2297 seconds
#
# Revision: 0
# Processed by: cddbd v1.5.2PL0 Copyright (c) Steve Scherf et al.
# Submitted via: ExactAudioCopy v0.95b2
#
DISCID=8c08f70b
DTITLE=Sylvia Mansel u. Hanjo Gäbler  - Gospel Express Playback
DYEAR=2006
DGENRE=Gospel
TTITLE0=Gospelexpress
TTITLE1=Allein, so allein
TTITLE2=Workersong
TTITLE3=Witness-Medley
TTITLE4=Durch Dick und Dünn
TTITLE5=When Israel was in Egypt's land
TTITLE6=Freudentanz
TTITLE7=The star
TTITLE8=Wade in the water
TTITLE9=I am free
TTITLE10=Megamix
EXTD=
EXTT0=
EXTT1=
EXTT2=
EXTT3=
EXTT4=
EXTT5=
EXTT6=
EXTT7=
EXTT8=
EXTT9=
EXTT10=
PLAYORDER=
